<mxfile host="app.diagrams.net" modified="2024-01-06T05:45:57.863Z" agent="Mozilla/5.0 (Windows NT 10.0; Win64; x64) AppleWebKit/537.36 (KHTML, like Gecko) Chrome/120.0.0.0 Safari/537.36" version="21.8.1" etag="54ER2oOEzF7poaBzcECD" type="github">
  <diagram name="第 1 页" id="MOLxLppb3NBC3yX1cXxX">
    <mxGraphModel>
      <root>
        <mxCell id="0" />
        <mxCell id="1" parent="0" />
      </root>
    </mxGraphModel>
  </diagram>
</mxfile>
